<svg height="464pt" viewBox="0 -11 464 463" width="464pt" xmlns="http://www.w3.org/2000/svg"><path d="m448 48.5h-432c-8.824219.027344-15.9726562 7.175781-16 16v208h464v-208c-.027344-8.824219-7.175781-15.972656-16-16zm0 0" fill="#9bfbff"/><path d="m0 252.035156v20.464844h464v-155.855469c-43.136719 50.144531-159.785156 131.320313-464 135.390625zm0 0" fill="#46f8ff"/><path d="m464 272.5v32c-.027344 8.824219-7.175781 15.972656-16 16h-432c-8.824219-.027344-15.9726562-7.175781-16-16v-32zm0 0" fill="#e0e0e2"/><path d="m344 384.5v48h-224v-48zm0 0" fill="#57565c"/><path d="m200 320.5h64v64h-64zm0 0" fill="#acabb1"/><path d="m128 64.5h208v32h-208zm0 0" fill="#898890"/><path d="m104 96.5h256v64h-256zm0 0" fill="#d8d7da"/><path d="m104 .5h256v64h-256zm0 0" fill="#e0e0e2"/><path d="m160 32.5c0 8.835938-7.164062 16-16 16s-16-7.164062-16-16 7.164062-16 16-16 16 7.164062 16 16zm0 0" fill="#ffda44"/><path d="m160 128.5c0 8.835938-7.164062 16-16 16s-16-7.164062-16-16 7.164062-16 16-16 16 7.164062 16 16zm0 0" fill="#d80027"/><g fill="#e0e0e2"><path d="m224 160.5h16v64h-16zm0 0"/><path d="m176 208.5h-96v-16h88v-32h16v40c0 4.417969-3.582031 8-8 8zm0 0"/><path d="m384 208.5h-96c-4.417969 0-8-3.582031-8-8v-40h16v32h88zm0 0"/></g><path d="m96 424.5h272v16h-272zm0 0" fill="#2d2d30"/><path d="m424 288.5h16v16h-16zm0 0" fill="#d80027"/><path d="m96 200.5c0 13.253906-10.746094 24-24 24s-24-10.746094-24-24 10.746094-24 24-24 24 10.746094 24 24zm0 0" fill="#ffda44"/><path d="m416 200.5c0 13.253906-10.746094 24-24 24s-24-10.746094-24-24 10.746094-24 24-24 24 10.746094 24 24zm0 0" fill="#ffda44"/><path d="m256 232.5c0 13.253906-10.746094 24-24 24s-24-10.746094-24-24 10.746094-24 24-24 24 10.746094 24 24zm0 0" fill="#ff9811"/><path d="m128 64.5h208v8h-208zm0 0" fill="#787680"/><path d="m200 320.5h64v16h-64zm0 0" fill="#898890"/><path d="m184 8.5h40c4.417969 0 8 3.582031 8 8s-3.582031 8-8 8h-40c-4.417969 0-8-3.582031-8-8s3.582031-8 8-8zm0 0" fill="#c6c5ca"/><path d="m184 104.5h40c4.417969 0 8 3.582031 8 8s-3.582031 8-8 8h-40c-4.417969 0-8-3.582031-8-8s3.582031-8 8-8zm0 0" fill="#c6c5ca"/></svg>