<svg height="512" viewBox="0 0 64 64" width="512" xmlns="http://www.w3.org/2000/svg"><g id="Web-Browser-Coding-Programing-Engineer"><path d="m4.618 56h54.764l-5-10h-44.764zm49.382-2h-2v-2h2zm-3-6h2v2h-2zm-1 6h-2v-2h2zm-3-6h2v2h-2zm-4 0h2v2h-2zm-4 0h2v2h-2zm-4 0h2v2h-2zm-4 0h2v2h-2zm-4 0h2v2h-2zm-4 0h2v2h-2zm-4 0h2v2h-2zm-1 4h28v2h-28zm-3-4h2v2h-2zm-1 4h2v2h-2zm-3-4h2v2h-2zm-1 4h2v2h-2z"/><path d="m4 58h56v2h-56z"/><path d="m27.14 35.99-2.679.379a10.859 10.859 0 0 1 -.682 1.64l1.496 1.991h4.725v-28h-20v10.78c.21-.083.415-.173.631-.242l.379-2.678a1 1 0 0 1 .99-.86h4a1 1 0 0 1 .99.86l.379 2.679a10.757 10.757 0 0 1 1.64.682l2.171-1.631a1 1 0 0 1 1.307.093l2.83 2.83a1 1 0 0 1 .093 1.307l-1.631 2.171a10.859 10.859 0 0 1 .682 1.64l2.679.379a1 1 0 0 1 .86.99v4a1 1 0 0 1 -.86.99z"/><circle cx="14" cy="33" r="4"/><path d="m11 40h11.773l-.983-1.31a1 1 0 0 1 -.058-1.115 8.773 8.773 0 0 0 .979-2.352 1 1 0 0 1 .829-.744l2.46-.347v-2.264l-2.46-.347a1 1 0 0 1 -.829-.744 8.773 8.773 0 0 0 -.979-2.352 1 1 0 0 1 .058-1.115l1.5-2-1.6-1.6-2 1.5a1 1 0 0 1 -1.115.058 8.722 8.722 0 0 0 -2.352-.979 1 1 0 0 1 -.744-.829l-.348-2.46h-2.262l-.348 2.46a1 1 0 0 1 -.746.83 8.46 8.46 0 0 0 -1.775.686v3.564a6 6 0 1 1 0 8.92v1.54a1 1 0 0 0 1 1z"/><path d="m54 39v-34a1 1 0 0 0 -1-1h-21v36h21a1 1 0 0 0 1-1zm-10.949-30.316 1.9.632-2 6-1.9-.632zm-7.758 2.609 3-3 1.414 1.414-2.293 2.293 2.293 2.293-1.414 1.414-3-3a1 1 0 0 1 0-1.414zm7.707 13.707h-6v-2h6zm4 2v2h-6v-2zm-12-8h4v2h-4zm0 8h4v2h-4zm10 6h-8v-2h8zm4 0h-2v-2h2zm0-8h-4v-2h4zm0-4h-8v-2h8zm1.707-8.293-3 3-1.414-1.414 2.293-2.293-2.293-2.293 1.414-1.414 3 3a1 1 0 0 1 0 1.414z"/><path d="m10 5v5h20v-6h-19a1 1 0 0 0 -1 1zm10 1h2v2h-2zm-4 0h2v2h-2zm-4 0h2v2h-2z"/></g></svg>