<svg height="512pt" viewBox="0 -23 512 512" width="512pt" xmlns="http://www.w3.org/2000/svg"><path d="m168.527344 466.460938h-158.398438c-5.59375 0-10.128906-4.535157-10.128906-10.132813v-446.199219c0-5.59375 4.535156-10.128906 10.128906-10.128906h158.398438c5.59375 0 10.128906 4.535156 10.128906 10.128906v446.199219c0 5.597656-4.535156 10.132813-10.128906 10.132813zm0 0" fill="#00d2b4"/><path d="m178.65625 10.132812v446.191407c0 5.601562-4.539062 10.128906-10.128906 10.128906h-21.777344c5.589844 0 10.128906-4.527344 10.128906-10.128906v-446.191407c0-5.601562-4.539062-10.12890575-10.128906-10.12890575h21.777344c5.589844 0 10.128906 4.52734375 10.128906 10.12890575zm0 0" fill="#00b7a0"/><path d="m283.925781 77.828125h-57.570312c-5.59375 0-10.128907-4.535156-10.128907-10.128906v-57.570313c0-5.59375 4.535157-10.128906 10.128907-10.128906h57.570312c5.59375 0 10.128907 4.535156 10.128907 10.128906v57.570313c0 5.59375-4.535157 10.128906-10.128907 10.128906zm0 0" fill="#ffde46"/><path d="m294.054688 10.132812v57.570313c0 5.59375-4.535157 10.132813-10.128907 10.132813h-21.777343c5.59375 0 10.128906-4.539063 10.128906-10.132813v-57.570313c0-5.601562-4.535156-10.12890575-10.128906-10.12890575h21.777343c5.59375 0 10.128907 4.52734375 10.128907 10.12890575zm0 0" fill="#f9c60b"/><path d="m283.925781 191.683594h-57.570312c-5.59375 0-10.128907-4.535156-10.128907-10.128906v-57.570313c0-5.59375 4.535157-10.128906 10.128907-10.128906h57.570312c5.59375 0 10.128907 4.535156 10.128907 10.128906v57.570313c0 5.59375-4.535157 10.128906-10.128907 10.128906zm0 0" fill="#ff3b82"/><path d="m294.054688 123.980469v57.574219c0 5.589843-4.535157 10.128906-10.128907 10.128906h-21.777343c5.59375 0 10.128906-4.539063 10.128906-10.128906v-57.574219c0-5.589844-4.535156-10.128907-10.128906-10.128907h21.777343c5.59375 0 10.128907 4.539063 10.128907 10.128907zm0 0" fill="#e11158"/><path d="m493.285156 77.828125h-150.765625c-5.59375 0-10.128906-4.535156-10.128906-10.128906v-57.570313c0-5.59375 4.535156-10.128906 10.128906-10.128906h150.765625c5.59375 0 10.128906 4.535156 10.128906 10.128906v57.570313c0 5.59375-4.535156 10.128906-10.128906 10.128906zm0 0" fill="#ff3b82"/><path d="m503.414062 10.132812v57.570313c0 5.59375-4.539062 10.132813-10.128906 10.132813h-21.777344c5.589844 0 10.128907-4.539063 10.128907-10.132813v-57.570313c0-5.601562-4.539063-10.12890575-10.128907-10.12890575h21.777344c5.589844 0 10.128906 4.52734375 10.128906 10.12890575zm0 0" fill="#e11158"/><path d="m493.285156 191.683594h-150.765625c-5.59375 0-10.128906-4.535156-10.128906-10.128906v-57.570313c0-5.59375 4.535156-10.128906 10.128906-10.128906h150.765625c5.59375 0 10.128906 4.535156 10.128906 10.128906v57.570313c0 5.59375-4.535156 10.128906-10.128906 10.128906zm0 0" fill="#ffde46"/><path d="m503.414062 123.980469v57.574219c0 5.589843-4.539062 10.128906-10.128906 10.128906h-21.777344c5.589844 0 10.128907-4.539063 10.128907-10.128906v-57.574219c0-5.589844-4.539063-10.128907-10.128907-10.128907h21.777344c5.589844 0 10.128906 4.539063 10.128906 10.128907zm0 0" fill="#f9c60b"/><path d="m494.148438 332.203125h-260.070313c-9.859375 0-17.851563-7.992187-17.851563-17.851563 0-9.859374 7.992188-17.851562 17.851563-17.851562h260.070313c9.859374 0 17.851562 7.992188 17.851562 17.851562 0 9.859376-7.992188 17.851563-17.851562 17.851563zm0 0" fill="#8cbcd4"/><path d="m512 314.351562c0 4.933594-1.996094 9.390626-5.226562 12.621094-3.230469 3.230469-7.699219 5.238282-12.632813 5.238282h-22.949219c4.929688 0 9.386719-2.007813 12.621094-5.238282 3.230469-3.230468 5.226562-7.6875 5.226562-12.621094 0-9.855468-7.992187-17.847656-17.847656-17.847656h22.953125c9.863281 0 17.855469 7.992188 17.855469 17.847656zm0 0" fill="#6facca"/><path d="m494.148438 399.332031h-260.070313c-9.859375 0-17.851563-7.992187-17.851563-17.851562 0-9.863281 7.992188-17.855469 17.851563-17.855469h260.070313c9.859374 0 17.851562 7.992188 17.851562 17.855469 0 9.859375-7.992188 17.851562-17.851562 17.851562zm0 0" fill="#3c94bb"/><path d="m512 381.476562c0 4.933594-1.996094 9.402344-5.226562 12.632813-3.230469 3.230469-7.699219 5.226563-12.632813 5.226563h-22.949219c4.929688 0 9.386719-1.996094 12.621094-5.226563 3.230469-3.230469 5.226562-7.699219 5.226562-12.632813 0-9.855468-7.992187-17.847656-17.847656-17.847656h22.953125c9.863281 0 17.855469 7.992188 17.855469 17.847656zm0 0" fill="#1683ae"/><path d="m494.148438 466.460938h-260.070313c-9.859375 0-17.851563-7.992188-17.851563-17.855469 0-9.859375 7.992188-17.851563 17.851563-17.851563h260.070313c9.859374 0 17.851562 7.992188 17.851562 17.851563 0 9.863281-7.992188 17.855469-17.851562 17.855469zm0 0" fill="#0a7296"/><path d="m512 448.601562c0 4.933594-1.996094 9.402344-5.226562 12.632813-3.230469 3.230469-7.699219 5.226563-12.632813 5.226563h-22.949219c4.929688 0 9.386719-1.996094 12.621094-5.226563 3.230469-3.230469 5.226562-7.699219 5.226562-12.632813 0-9.855468-7.992187-17.847656-17.847656-17.847656h22.953125c9.863281 0 17.855469 7.992188 17.855469 17.847656zm0 0" fill="#075f7f"/><path d="m494.148438 265.078125h-260.070313c-9.859375 0-17.851563-7.992187-17.851563-17.851563 0-9.863281 7.992188-17.855468 17.851563-17.855468h260.070313c9.859374 0 17.851562 7.992187 17.851562 17.855468 0 9.859376-7.992188 17.851563-17.851562 17.851563zm0 0" fill="#b6d3e3"/><path d="m512 247.222656c0 4.933594-1.996094 9.390625-5.226562 12.621094-3.230469 3.230469-7.699219 5.238281-12.632813 5.238281h-22.949219c4.929688 0 9.386719-2.007812 12.621094-5.238281 3.230469-3.230469 5.226562-7.6875 5.226562-12.621094 0-9.855468-7.992187-17.84375-17.847656-17.84375h22.953125c9.863281 0 17.855469 7.988282 17.855469 17.84375zm0 0" fill="#8cbcd4"/><g fill="#008c80"><path d="m67.179688 299.949219h-21.632813c-4.269531 0-7.726563-3.457031-7.726563-7.722657 0-4.269531 3.457032-7.726562 7.726563-7.726562h21.632813c4.269531 0 7.726562 3.457031 7.726562 7.726562 0 4.265626-3.457031 7.722657-7.726562 7.722657zm0 0"/><path d="m133.113281 347.296875h-87.566406c-4.269531 0-7.726563-3.457031-7.726563-7.726563 0-4.265624 3.457032-7.726562 7.726563-7.726562h87.5625c4.269531 0 7.726563 3.460938 7.726563 7.726562.003906 4.269532-3.457032 7.726563-7.722657 7.726563zm0 0"/><path d="m133.113281 381.292969h-87.566406c-4.269531 0-7.726563-3.457031-7.726563-7.726563 0-4.265625 3.457032-7.726562 7.726563-7.726562h87.5625c4.269531 0 7.726563 3.460937 7.726563 7.726562.003906 4.269532-3.457032 7.726563-7.722657 7.726563zm0 0"/><path d="m133.113281 415.289062h-87.566406c-4.269531 0-7.726563-3.460937-7.726563-7.726562s3.457032-7.726562 7.726563-7.726562h87.5625c4.269531 0 7.726563 3.460937 7.726563 7.726562.003906 4.265625-3.457032 7.726562-7.722657 7.726562zm0 0"/></g></svg>