<svg id="Flat" height="512" viewBox="0 0 512 512" width="512" xmlns="http://www.w3.org/2000/svg"><rect fill="#e9eef2" height="336" rx="32" width="464" x="24" y="48"/><path d="m197.46 234.94a72.01 72.01 0 1 1 -22.6-73.61 72.017 72.017 0 0 1 22.6 73.61z" fill="#f7b030"/><path d="m197.46 234.94a72.023 72.023 0 0 1 -127.06 24.26l57.6-43.21 46.86-54.66a72.046 72.046 0 0 1 22.6 73.61z" fill="#eb423f"/><path d="m197.46 234.94-69.46-18.95 46.86-54.66a72.046 72.046 0 0 1 22.6 73.61z" fill="#35a872"/><path d="m488 320v32a32 32 0 0 1 -32 32h-400a32 32 0 0 1 -32-32v-32z" fill="#9aa3a8"/><path d="m264 360h-16a8 8 0 0 1 0-16h16a8 8 0 0 1 0 16z" fill="#757c80"/><path d="m336 464h-160l16-80h128z" fill="#757c80"/><path d="m197.46 234.94-69.46-18.95 46.86-54.66q1.71 1.44 3.31 3.02a72.061 72.061 0 0 1 19.29 70.59z" fill="#35a872"/><path d="m288 192h32v32h-32z" fill="#35a872"/><path d="m352 176h32v48h-32z" fill="#eb423f"/><path d="m416 160h32v64h-32z" fill="#f7b030"/><g fill="#9aa3a8"><path d="m352 264h-87a8 8 0 0 1 0-16h87a8 8 0 0 1 0 16z"/><path d="m400 296h-135a8 8 0 0 1 0-16h135a8 8 0 0 1 0 16z"/><path d="m448 264h-16a8 8 0 0 1 0-16h16a8 8 0 0 1 0 16z"/></g><path d="m232 296a8 8 0 0 1 -8-8v-192a8 8 0 0 1 16 0v192a8 8 0 0 1 -8 8z" fill="#dadcde"/><path d="m448 296h-16a8 8 0 0 1 0-16h16a8 8 0 0 1 0 16z" fill="#9aa3a8"/><circle cx="56" cy="80" fill="#eb423f" r="8"/><circle cx="88" cy="80" fill="#f7b030" r="8"/><circle cx="120" cy="80" fill="#35a872" r="8"/><path d="m88 120h-32a8 8 0 0 1 0-16h32a8 8 0 0 1 0 16z" fill="#9aa3a8"/><path d="m152 120h-32a8 8 0 0 1 0-16h32a8 8 0 0 1 0 16z" fill="#9aa3a8"/><path d="m456 232h-192a8 8 0 0 1 0-16h192a8 8 0 0 1 0 16z" fill="#dadcde"/><path d="m280.005 168a7.974 7.974 0 0 0 3.306-.719l76.689-34.857v11.576a8 8 0 0 0 11.311 7.283l71.3-32.408-2.2 6.595a8 8 0 1 0 15.18 5.06l8-24-.021-.007a7.934 7.934 0 0 0 -5.04-10.113l-24-8a8 8 0 1 0 -5.06 15.18l4.674 1.557-58.144 26.429v-11.576a8 8 0 0 0 -11.311-7.283l-88 40a8 8 0 0 0 3.316 15.283z" fill="#9aa3a8"/></svg>