<?xml version="1.0" encoding="iso-8859-1"?>
<!-- Generator: Adobe Illustrator 19.0.0, SVG Export Plug-In . SVG Version: 6.00 Build 0)  -->
<svg version="1.1" id="Layer_1" xmlns="http://www.w3.org/2000/svg" xmlns:xlink="http://www.w3.org/1999/xlink" x="0px" y="0px"
	 viewBox="0 0 512 512" style="enable-background:new 0 0 512 512;" xml:space="preserve">
<polygon style="fill:#E21B1B;" points="0,480.024 512,480.024 448,338.696 64,338.696 "/>
<rect x="70" y="56.696" style="fill:#CCCCCC;" width="372" height="244"/>
<path style="fill:#333333;" d="M436,62.696v232H76v-232L436,62.696 M448,50.696H64v256h384V50.696z"/>
<g style="opacity:0.2;">
	<polygon style="fill:#FFFFFF;" points="76.016,135.096 76.016,62.712 148.4,62.712 	"/>
</g>
<circle cx="267.304" cy="254.072" r="23.816"/>
<circle style="fill:#999999;" cx="267.304" cy="254.072" r="11.568"/>
<polygon points="177.576,138.144 161.936,91.864 121.44,91.864 121.44,79.496 170.808,79.496 189.288,134.184 "/>
<circle cx="195.48" cy="254.072" r="23.816"/>
<polygon style="fill:#FFFFFF;" points="179.12,215.608 153.008,131.76 313.64,131.76 283.76,215.608 "/>
<g>
	<path style="fill:#E21B1B;" d="M308,135.76l-27.032,75.848h-98.904L158.44,135.76L308,135.76 M319.344,127.76H147.576l28.6,91.848
		h110.4l32.736-91.848H319.344z"/>
	<polygon style="fill:#E21B1B;" points="303.144,160.264 263.304,160.264 253.728,177.088 214.288,177.088 218.008,188.736 
		291.648,188.736 	"/>
</g>
<circle style="fill:#999999;" cx="195.48" cy="254.072" r="11.568"/>
<circle style="fill:#E21B1B;" cx="67.632" cy="166.816" r="61.36"/>
<path style="fill:#FFFFFF;" d="M64.68,200.488v-8.248c-4.832-0.056-9.568-1.344-13.768-3.736l2.296-8
	c4.016,2.376,8.584,3.664,13.256,3.736c5.352,0,9-2.632,9-6.712c0-3.824-2.968-6.288-9.256-8.584
	c-8.92-3.2-14.696-7.304-14.696-15.2c0.16-7.616,6.08-13.872,13.68-14.44v-8.344h6.96v7.904c4.072,0.048,8.08,1,11.728,2.8
	l-2.296,7.824c-3.568-1.872-7.528-2.864-11.552-2.888c-5.944,0-8.072,3.056-8.072,5.944c0,3.488,3.064,5.44,10.28,8.328
	c9.512,3.568,13.768,8.16,13.768,15.72c-0.144,8.008-6.368,14.584-14.36,15.168v8.752L64.68,200.488z"/>
<circle cx="421.128" cy="79.496" r="47.52"/>
<g>
	<path style="fill:#FFFFFF;" d="M418.84,105.568v-6.4c-3.744-0.04-7.416-1.032-10.664-2.888l1.784-6.184
		c3.112,1.848,6.648,2.84,10.264,2.896c4.144,0,6.968-2.04,6.968-5.2c0-2.96-2.304-4.864-7.2-6.64
		c-6.904-2.496-11.384-5.664-11.384-11.784c0.112-5.904,4.704-10.76,10.592-11.208v-6.4h5.4v6.12
		c3.152,0.032,6.256,0.776,9.08,2.168l-1.776,6.048c-2.768-1.448-5.832-2.208-8.952-2.232c-4.6,0-6.248,2.4-6.248,4.608
		c0,2.696,2.4,4.208,8,6.448c7.368,2.76,10.664,6.312,10.664,12.168c-0.136,6.192-4.952,11.264-11.128,11.712v6.776L418.84,105.568z
		"/>
	<circle style="fill:#FFFFFF;" cx="366.832" cy="221.76" r="47.52"/>
</g>
<path style="fill:#E21B1B;" d="M364.536,247.832v-6.4c-3.744-0.04-7.416-1.032-10.664-2.888l1.784-6.184
	c3.112,1.848,6.648,2.84,10.264,2.896c4.144,0,6.968-2.04,6.968-5.2c0-2.96-2.304-4.864-7.2-6.64
	c-6.904-2.496-11.384-5.664-11.384-11.784c0.12-5.904,4.704-10.752,10.592-11.2v-6.448h5.4v6.12c3.152,0.032,6.256,0.776,9.08,2.168
	l-1.776,6.048c-2.768-1.448-5.832-2.208-8.952-2.232c-4.6,0-6.248,2.4-6.248,4.608c0,2.696,2.4,4.208,8,6.448
	c7.368,2.76,10.664,6.312,10.664,12.168c-0.136,6.192-4.952,11.264-11.128,11.712v6.776L364.536,247.832z"/>
<g>
</g>
<g>
</g>
<g>
</g>
<g>
</g>
<g>
</g>
<g>
</g>
<g>
</g>
<g>
</g>
<g>
</g>
<g>
</g>
<g>
</g>
<g>
</g>
<g>
</g>
<g>
</g>
<g>
</g>
</svg>
