<?xml version="1.0" encoding="iso-8859-1"?>
<!-- Generator: Adobe Illustrator 19.0.0, SVG Export Plug-In . SVG Version: 6.00 Build 0)  -->
<svg version="1.1" id="Capa_1" xmlns="http://www.w3.org/2000/svg" xmlns:xlink="http://www.w3.org/1999/xlink" x="0px" y="0px"
	 viewBox="0 0 464 464" style="enable-background:new 0 0 464 464;" xml:space="preserve">
<rect x="408" y="216" width="16" height="16"/>
<path style="fill:#358CEC;" d="M240,56V8c0-4.416-3.584-8-8-8H8C3.584,0,0,3.584,0,8v448c0,4.416,3.584,8,8,8h224
	c4.416,0,8-3.584,8-8V344V56z"/>
<path style="fill:#E65039;" d="M248,88h208c4.416,0,8,3.584,8,8v208c0,4.416-3.584,8-8,8H248"/>
<g>
	<polyline style="fill:#FACA4F;" points="248,144 464,144 464,192 248,192 	"/>
	<rect x="376" y="216" style="fill:#FACA4F;" width="16" height="16"/>
</g>
<rect x="344" y="216" style="fill:#FFFFF8;" width="16" height="16"/>
<g>
	<rect x="248" y="264" style="fill:#FACA4F;" width="32" height="16"/>
	<rect x="296" y="264" style="fill:#FACA4F;" width="64" height="16"/>
	<path style="fill:#FACA4F;" d="M120,432L120,432c-8.84,0-16-7.16-16-16l0,0c0-8.84,7.16-16,16-16l0,0c8.84,0,16,7.16,16,16l0,0
		C136,424.84,128.84,432,120,432z"/>
</g>
<polygon style="fill:#E7F2FF;" points="208,72 208,32 32,32 32,368 208,368 208,328 "/>
<g>
	<path style="fill:#FACA4F;" d="M149.656,173.656l-11.312-11.312L156.688,144l-18.344-18.344l11.312-11.312l24,24
		c3.128,3.128,3.128,8.184,0,11.312L149.656,173.656z"/>
	<path style="fill:#FACA4F;" d="M189.656,173.656l-11.312-11.312L196.688,144l-18.344-18.344l11.312-11.312l24,24
		c3.128,3.128,3.128,8.184,0,11.312L189.656,173.656z"/>
	<rect x="72" y="136" style="fill:#FACA4F;" width="16" height="16"/>
	<rect x="104" y="136" style="fill:#FACA4F;" width="16" height="16"/>
</g>
<g>
	<path style="fill:#E65039;" d="M138.344,285.656l-24-24c-3.128-3.128-3.128-8.184,0-11.312l24-24l11.312,11.312L131.312,256
		l18.344,18.344L138.344,285.656z"/>
	<path style="fill:#E65039;" d="M98.344,285.656l-24-24c-3.128-3.128-3.128-8.184,0-11.312l24-24l11.312,11.312L91.312,256
		l18.344,18.344L98.344,285.656z"/>
	<rect x="200" y="248" style="fill:#E65039;" width="16" height="16"/>
	<rect x="168" y="248" style="fill:#E65039;" width="16" height="16"/>
</g>
<g>
</g>
<g>
</g>
<g>
</g>
<g>
</g>
<g>
</g>
<g>
</g>
<g>
</g>
<g>
</g>
<g>
</g>
<g>
</g>
<g>
</g>
<g>
</g>
<g>
</g>
<g>
</g>
<g>
</g>
</svg>
