<svg height="512pt" viewBox="0 0 512 512" width="512pt" xmlns="http://www.w3.org/2000/svg"><path d="m512 256c0 141.386719-114.613281 256-256 256s-256-114.613281-256-256 114.613281-256 256-256 256 114.613281 256 256zm0 0" fill="#fee175"/><g fill="#151a1c"><path d="m415.027344 186.523438h-17.410156v-111.277344h17.410156c6.832031 0 12.367187 5.539062 12.367187 12.367187v86.542969c0 6.832031-5.535156 12.367188-12.367187 12.367188zm0 0"/><path d="m95.484375 120.445312h21.894531v-45.199218h-21.894531c-4.355469 0-7.882813 3.53125-7.882813 7.882812v29.433594c0 4.351562 3.527344 7.882812 7.882813 7.882812zm0 0"/><path d="m95.484375 172.210938h21.894531v-45.195313h-21.894531c-4.355469 0-7.882813 3.527344-7.882813 7.878906v29.433594c0 4.355469 3.527344 7.882813 7.882813 7.882813zm0 0"/></g><path d="m415.882812 57.800781v398.140625c-43.8125 35.085938-99.390624 56.058594-159.878906 56.058594-60.5 0-116.078125-20.984375-159.890625-56.070312v-398.128907c0-.59375.011719-1.179687.03125-1.765625.929688-25.597656 21.972657-46.058594 47.792969-46.058594h224.121094c25.820312 0 46.863281 20.460938 47.792968 46.050782.019532.585937.03125 1.179687.03125 1.773437zm0 0" fill="#2c363b"/><path d="m402.851562 106.558594v318.828125c0 11.933593-9.664062 21.609375-21.597656 21.609375h-250.503906c-11.929688 0-21.605469-9.675782-21.605469-21.609375v-318.828125c0-11.933594 9.675781-21.609375 21.605469-21.609375h250.503906c11.933594 0 21.597656 9.675781 21.597656 21.609375zm0 0" fill="#40649c"/><path d="m297.796875 54.660156h-83.59375c-4.328125 0-7.835937-3.507812-7.835937-7.835937s3.507812-7.835938 7.835937-7.835938h83.59375c4.328125 0 7.835937 3.507813 7.835937 7.835938s-3.507812 7.835937-7.835937 7.835937zm0 0" fill="#151a1c"/><path d="m248.558594 315.785156c-32.460938-1.082031-58.96875-17.855468-58.96875-35.167968 0-9.195313 8.117187-22.71875 18.394531-22.71875 11.363281 0 20.558594 15.957031 40.574219 19.476562v-43.824219c-24.882813-9.464843-54.097656-21.097656-54.097656-55.71875 0-34.355469 25.425781-50.855469 54.097656-54.914062v-7.570313c0-3.789062 4.328125-7.304687 10.28125-7.304687 5.136718 0 10.277344 3.515625 10.277344 7.304687v6.761719c16.769531.539063 48.417968 4.867187 48.417968 23.53125 0 7.304687-4.871094 22.179687-16.769531 22.179687-8.925781 0-14.066406-8.652343-31.648437-10.007812v39.496094c24.613281 9.195312 53.289062 21.910156 53.289062 58.425781 0 33.542969-21.640625 53.828125-53.289062 58.96875v7.84375c0 3.789063-5.140626 7.304687-10.277344 7.304687-5.953125 0-10.28125-3.515624-10.28125-7.304687zm2.703125-124.96875v-32.191406c-12.171875 2.4375-17.308594 8.65625-17.308594 15.148438 0 7.84375 7.03125 12.714843 17.308594 17.042968zm15.152343 50.039063v36.246093c9.195313-2.164062 16.5-7.300781 16.5-17.039062 0-8.925781-6.765624-14.609375-16.5-19.207031zm0 0" fill="#77d9a5"/><path d="m173.402344 356.40625c0-2.636719 2.429687-4.960938 6.125-4.960938h21.859375c13.9375 0 24.921875 6.546876 24.921875 24.285157v.527343c0 17.742188-11.40625 24.5-25.980469 24.5h-10.453125v22.808594c0 3.378906-4.117188 5.070313-8.234375 5.070313s-8.238281-1.691407-8.238281-5.070313zm16.476562 9.398438v22.28125h10.453125c5.914063 0 9.503907-3.378907 9.503907-10.558594v-1.164063c0-7.179687-3.589844-10.558593-9.503907-10.558593zm0 0" fill="#f1f4fe"/><path d="m224.304688 421.878906c0-.316406.105468-.742187.210937-1.164062l19.640625-64.414063c1.160156-3.695312 5.914062-5.488281 10.769531-5.488281 4.859375 0 9.609375 1.792969 10.773438 5.488281l19.746093 64.414063c.105469.421875.210938.847656.210938 1.164062 0 3.90625-6.019531 6.757813-10.5625 6.757813-2.636719 0-4.75-.847657-5.382812-3.0625l-3.589844-13.199219h-22.28125l-3.589844 13.199219c-.632812 2.214843-2.746094 3.0625-5.386719 3.0625-4.539062 0-10.558593-2.851563-10.558593-6.757813zm38.332031-22.175781-7.710938-28.300781-7.707031 28.300781zm0 0" fill="#f1f4fe"/><path d="m302.128906 397.0625c0-.632812-.210937-1.160156-.421875-1.480469l-21.855469-36.21875c-.210937-.421875-.210937-.84375-.210937-1.160156 0-3.90625 6.652344-6.757813 11.191406-6.757813 2.640625 0 3.589844 1.054688 4.75 3.0625l14.785157 27.136719 14.675781-27.136719c1.058593-2.007812 2.113281-3.0625 4.753906-3.0625 4.539063 0 11.191406 2.851563 11.191406 6.757813 0 .316406 0 .738281-.210937 1.160156l-21.753906 36.21875c-.210938.316407-.421876.847657-.421876 1.480469v26.503906c0 3.378906-4.117187 5.070313-8.234374 5.070313-4.117188 0-8.238282-1.691407-8.238282-5.070313zm0 0" fill="#f1f4fe"/><path d="m271.671875 482.644531c0 8.65625-7.015625 15.671875-15.671875 15.671875s-15.671875-7.015625-15.671875-15.671875 7.015625-15.671875 15.671875-15.671875 15.671875 7.015625 15.671875 15.671875zm0 0" fill="#151a1c"/></svg>