<svg id="Layer_1" enable-background="new 0 0 256 256" height="512" viewBox="0 0 256 256" width="512" xmlns="http://www.w3.org/2000/svg"><g><g><g><g><g><g><path d="m188.33 50.91v42.11h14.07v14.86h-38.07v97.21h38.07v13.84h-148.8v-13.84h40.77v-41.18h-40.77v-14.86h94.17v-41.17h-94.17v-14.86h60.75v-42.11h-60.75v-13.84h148.8v13.84z" fill="#efefef"/></g><g><path d="m202.4 19.5v17.57h-148.8v-17.57c0-8.56 6.94-15.5 15.5-15.5h117.8c8.55 0 15.5 6.94 15.5 15.5z" fill="#afafaf"/></g><g><path d="m53.6 218.93h148.8v17.57c0 8.56-6.95 15.5-15.5 15.5h-117.8c-8.56 0-15.5-6.94-15.5-15.5z" fill="#afafaf"/></g></g></g></g></g><path d="m53.6 107.88h-33.78v41.17h33.78 94.17v-41.17z" fill="#72c1e8"/><path d="m202.4 107.88h-38.07v97.21h38.07 34.06v-97.21z" fill="#fc5d3d"/><path d="m53.6 163.91h-34.06v41.18h34.06 40.77v-41.18z" fill="#fc5d3d"/><path d="m202.4 50.91h-14.07v42.11h14.07 34.06v-42.11z" fill="#72c1e8"/><g><circle cx="129.351" cy="184.654" fill="#f0c020" r="20.432"/></g><g><path d="m124.965 198.925c-2.318-.708-4.452-1.993-6.172-3.713-.977-.976-.977-2.559 0-3.535.976-.977 2.56-.977 3.535 0 1.144 1.144 2.561 1.997 4.099 2.467 1.32.404 2.063 1.801 1.66 3.122-.406 1.326-1.81 2.062-3.122 1.659zm8.225-2.185c-.668-1.208-.231-2.729.977-3.398 2.991-1.655 5.11-4.874 5.11-8.688 0-2.658-1.03-5.152-2.902-7.023-.977-.977-.977-2.559 0-3.536s2.559-.976 3.535 0c2.816 2.816 4.367 6.566 4.367 10.56 0 5.695-3.151 10.548-7.688 13.062-1.21.668-2.729.23-3.399-.977z" fill="#f9e5af"/></g><path d="m53.6 50.91h-33.78v42.11h33.78 60.75v-42.11z" fill="#fc5d3d"/><g><circle cx="151.338" cy="71.966" fill="#f0c020" r="20.432"/></g><g><path d="m152.928 83.592c-.473-1.297.195-2.732 1.492-3.205 3.377-1.231 5.884-4.492 5.884-8.421 0-2.395-.933-4.646-2.626-6.34-.977-.977-.977-2.56 0-3.536s2.559-.976 3.535 0c2.638 2.638 4.091 6.146 4.091 9.875 0 6.056-3.837 11.174-9.171 13.119-1.292.472-2.731-.19-3.205-1.492zm-8.549.485c-1.062-.611-2.043-1.364-2.916-2.237-.977-.976-.977-2.559 0-3.535.977-.977 2.559-.977 3.535 0 .563.562 1.193 1.046 1.875 1.438 1.196.688 1.608 2.217.92 3.414-.689 1.196-2.215 1.609-3.414.92z" fill="#f9e5af"/></g><g><path d="m115.73 232.96c-1.38 0-2.5 1.12-2.5 2.5s1.12 2.5 2.5 2.5h24.54c1.38 0 2.5-1.12 2.5-2.5s-1.12-2.5-2.5-2.5z"/><circle cx="103.33" cy="4" r="2.5"/><path d="m152.649 249.5c-1.369 0-2.489 1.12-2.489 2.5s1.12 2.5 2.489 2.5c1.381 0 2.5-1.12 2.5-2.5s-1.119-2.5-2.5-2.5z"/><path d="m147.84 23.04c1.38 0 2.5-1.13 2.5-2.5 0-1.38-1.12-2.5-2.5-2.5h-1.271c-1.38 0-2.5 1.12-2.5 2.5 0 1.37 1.12 2.5 2.5 2.5z"/><path d="m108.16 23.04h24.8c1.38 0 2.5-1.13 2.5-2.5 0-1.38-1.12-2.5-2.5-2.5h-24.8c-1.38 0-2.5 1.12-2.5 2.5 0 1.37 1.12 2.5 2.5 2.5z"/><path d="m236.456 95.517c1.381 0 2.5-1.119 2.5-2.5s-1.119-2.5-2.5-2.5h-45.629v-37.103h45.629c1.381 0 2.5-1.119 2.5-2.5s-1.119-2.5-2.5-2.5h-31.557c0-16.524 0-27.609 0-28.914 0-9.92-8.08-18-18-18h-73.57c-1.38 0-2.5 1.12-2.5 2.5s1.12 2.5 2.5 2.5h73.57c7.15.01 12.99 5.85 13 13v15.07h-143.799v-15.07c.01-7.15 5.84-12.99 13-13h24.23c1.38 0 2.5-1.12 2.5-2.5s-1.12-2.5-2.5-2.5h-24.23c-9.93 0-18 8.07-18 18v28.914h-31.284c-1.381 0-2.5 1.119-2.5 2.5s1.119 2.5 2.5 2.5h92.033v37.103h-92.033c-1.381 0-2.5 1.119-2.5 2.5s1.119 2.5 2.5 2.5h31.284v9.86h-31.284c-1.381 0-2.5 1.119-2.5 2.5s1.119 2.5 2.5 2.5h33.754c.01 0 .019.003.029.003s.019-.003.029-.003h91.643v36.175h-91.652c-.007 0-.013-.002-.019-.002s-.013.002-.019.002h-33.765c-1.381 0-2.5 1.119-2.5 2.5s1.119 2.5 2.5 2.5h31.284v9.86h-31.556c-1.381 0-2.5 1.119-2.5 2.5s1.119 2.5 2.5 2.5h72.324v36.174h-72.324c-1.381 0-2.5 1.119-2.5 2.5s1.119 2.5 2.5 2.5h31.556v28.914c0 9.92 8.08 18 18 18h73.561c1.37 0 2.489-1.12 2.489-2.5s-1.119-2.5-2.489-2.5h-73.561c-7.15-.01-12.99-5.85-13-13v-15.07h143.8v15.07c-.01 7.15-5.84 12.99-13 13h-24.24c-1.38 0-2.5 1.12-2.5 2.5s1.12 2.5 2.5 2.5h24.239c9.92 0 18-8.08 18-18v-28.914h31.557c1.381 0 2.5-1.119 2.5-2.5s-1.119-2.5-2.5-2.5h-69.622v-92.209h35.536c.01 0 .019.003.029.003s.019-.003.029-.003h34.028c1.381 0 2.5-1.119 2.5-2.5s-1.119-2.5-2.5-2.5h-31.557v-9.86zm-36.557 9.86h-35.565c-1.381 0-2.5 1.119-2.5 2.5v97.209c0 1.381 1.119 2.5 2.5 2.5h35.565v8.844h-143.799v-8.844h38.269c1.381 0 2.5-1.119 2.5-2.5v-41.174c0-1.381-1.119-2.5-2.5-2.5h-38.269v-9.86h91.672c1.381 0 2.5-1.119 2.5-2.5v-41.175c0-1.381-1.119-2.5-2.5-2.5h-91.672v-9.86h58.25c1.381 0 2.5-1.119 2.5-2.5v-42.103c0-1.381-1.119-2.5-2.5-2.5h-58.25v-8.844h143.8v8.844h-11.572c-1.381 0-2.5 1.119-2.5 2.5v42.103c0 1.381 1.119 2.5 2.5 2.5h11.572c-.001 3.248-.001 6.537-.001 9.86z"/><path d="m151.338 49.033c-12.646 0-22.933 10.287-22.933 22.932s10.287 22.933 22.933 22.933 22.933-10.288 22.933-22.933-10.288-22.932-22.933-22.932zm0 40.865c-9.888 0-17.933-8.044-17.933-17.933 0-9.888 8.045-17.932 17.933-17.932s17.933 8.044 17.933 17.932c0 9.889-8.045 17.933-17.933 17.933z"/><path d="m129.352 161.721c-12.645 0-22.933 10.288-22.933 22.933s10.288 22.932 22.933 22.932 22.932-10.287 22.932-22.932-10.288-22.933-22.932-22.933zm0 40.865c-9.888 0-17.933-8.044-17.933-17.932s8.044-17.933 17.933-17.933c9.888 0 17.932 8.044 17.932 17.933-.001 9.888-8.045 17.932-17.932 17.932z"/></g><g><path d="m229 193.5h-3.96c-1.381 0-2.5-1.119-2.5-2.5s1.119-2.5 2.5-2.5h3.96c1.381 0 2.5 1.119 2.5 2.5s-1.119 2.5-2.5 2.5zm-13.96 0h-37.04c-1.381 0-2.5-1.119-2.5-2.5v-71.96c0-1.381 1.119-2.5 2.5-2.5s2.5 1.119 2.5 2.5v69.46h34.54c1.381 0 2.5 1.119 2.5 2.5s-1.119 2.5-2.5 2.5z" fill="#ffcbc2"/></g><g><path d="m136.333 138.9h-92.64c-1.381 0-2.5-1.119-2.5-2.5s1.119-2.5 2.5-2.5h90.14v-14.86c0-1.381 1.119-2.5 2.5-2.5s2.5 1.119 2.5 2.5v17.36c0 1.381-1.119 2.5-2.5 2.5zm-102.64 0h-6.026c-1.381 0-2.5-1.119-2.5-2.5s1.119-2.5 2.5-2.5h6.026c1.381 0 2.5 1.119 2.5 2.5s-1.119 2.5-2.5 2.5z" fill="#c5e5ff"/></g><g><path d="m229 84.47h-29.75c-1.381 0-2.5-1.119-2.5-2.5v-17.36c0-1.381 1.119-2.5 2.5-2.5s2.5 1.119 2.5 2.5v14.86h27.25c1.381 0 2.5 1.119 2.5 2.5s-1.119 2.5-2.5 2.5z" fill="#c5e5ff"/></g><g><path d="m99.333 83.146h-56.64c-1.381 0-2.5-1.119-2.5-2.5s1.119-2.5 2.5-2.5h54.14v-14.86c0-1.381 1.119-2.5 2.5-2.5s2.5 1.119 2.5 2.5v17.36c0 1.38-1.119 2.5-2.5 2.5zm-66.64 0h-5.027c-1.381 0-2.5-1.119-2.5-2.5s1.119-2.5 2.5-2.5h5.027c1.381 0 2.5 1.119 2.5 2.5s-1.119 2.5-2.5 2.5z" fill="#ffcbc2"/></g><g><path d="m80.667 195.679h-39.64c-1.381 0-2.5-1.119-2.5-2.5s1.119-2.5 2.5-2.5h37.14v-14.86c0-1.381 1.119-2.5 2.5-2.5s2.5 1.119 2.5 2.5v17.36c0 1.381-1.12 2.5-2.5 2.5zm-49.641 0h-3.36c-1.381 0-2.5-1.119-2.5-2.5s1.119-2.5 2.5-2.5h3.36c1.381 0 2.5 1.119 2.5 2.5s-1.119 2.5-2.5 2.5z" fill="#ffcbc2"/></g></g></svg>